<?xml version="1.0" encoding="UTF-8" standalone="no" ?>
<!DOCTYPE svg PUBLIC "-//W3C//DTD SVG 1.1//EN" "http://www.w3.org/Graphics/SVG/1.1/DTD/svg11.dtd">
<svg xmlns="http://www.w3.org/2000/svg" xmlns:xlink="http://www.w3.org/1999/xlink" version="1.1" width="1080" height="1080" viewBox="0 0 1080 1080" xml:space="preserve">
<desc>Created with Fabric.js 5.2.4</desc>
<defs>
</defs>
<g transform="matrix(1 0 0 1 540 540)" id="4fbcc5dc-2430-4223-aae6-539f59f06780"  >
<rect style="stroke: none; stroke-width: 1; stroke-dasharray: none; stroke-linecap: butt; stroke-dashoffset: 0; stroke-linejoin: miter; stroke-miterlimit: 4; fill: rgb(255,255,255); fill-rule: nonzero; opacity: 1;" vector-effect="non-scaling-stroke"  x="-540" y="-540" rx="0" ry="0" width="1080" height="1080" />
</g>
<g transform="matrix(1 0 0 1 540 540)" id="db6c1456-1730-4300-a2bd-c0ce28432297"  >
</g>
<g transform="matrix(1 0 0 1 540 540)"  >
<g style="" vector-effect="non-scaling-stroke"   >
		<g transform="matrix(0.13 0 0 -0.13 0 0)"  >
<path style="stroke: none; stroke-width: 1; stroke-dasharray: none; stroke-linecap: butt; stroke-dashoffset: 0; stroke-linejoin: miter; stroke-miterlimit: 4; fill: rgb(0,0,0); fill-rule: nonzero; opacity: 1;" vector-effect="non-scaling-stroke"  transform=" translate(-4770, -4800)" d="M 0 4800 L 0 0 L 4770 0 L 9540 0 L 9540 4800 L 9540 9600 L 4770 9600 L 0 9600 L 0 4800 z M 5175 8721 C 5860 8616 6442 8326 6921 7850 C 7134 7638 7294 7430 7440 7176 C 7790 6566 7923 5826 7810 5113 C 7658 4156 7072 3324 6222 2855 C 6017 2742 5741 2630 5668 2630 C 5616 2630 5564 2655 5536 2693 C 5516 2721 5515 2735 5510 3283 L 5504 3845 L 5477 3935 C 5445 4037 5405 4114 5349 4182 C 5303 4237 5295 4230 5435 4250 C 5991 4329 6364 4561 6559 4949 C 6607 5042 6666 5229 6691 5360 C 6722 5528 6729 5870 6705 6007 C 6669 6207 6597 6374 6479 6529 L 6407 6623 L 6423 6674 C 6469 6824 6479 7040 6447 7202 C 6426 7307 6383 7442 6367 7452 C 6334 7473 6184 7452 6050 7409 C 5954 7378 5740 7271 5622 7196 L 5518 7130 L 5462 7145 C 5040 7253 4521 7258 4071 7156 L 3959 7131 L 3875 7186 C 3660 7326 3410 7431 3241 7453 C 3112 7469 3108 7467 3077 7363 C 3002 7116 2994 6910 3051 6698 L 3072 6621 L 3008 6535 C 2886 6373 2806 6189 2775 6000 C 2757 5889 2755 5644 2771 5502 C 2812 5130 2940 4837 3154 4632 C 3325 4468 3535 4359 3803 4295 C 3891 4274 3945 4264 4138 4234 L 4171 4229 L 4130 4183 C 4075 4120 4025 4014 3996 3900 L 3972 3805 L 3874 3771 C 3789 3742 3758 3736 3655 3732 C 3563 3729 3520 3732 3470 3745 C 3315 3785 3191 3884 3077 4057 C 2932 4276 2774 4382 2590 4384 C 2496 4385 2450 4367 2450 4330 C 2450 4301 2502 4247 2578 4196 C 2699 4116 2806 3987 2871 3844 C 2962 3642 2971 3627 3054 3545 C 3175 3425 3299 3367 3495 3340 C 3594 3326 3756 3332 3880 3354 C 3921 3361 3956 3367 3957 3366 C 3958 3365 3960 3223 3962 3050 C 3965 2750 3964 2733 3945 2701 C 3920 2658 3867 2630 3813 2630 C 3735 2630 3458 2743 3244 2861 C 2982 3007 2775 3164 2549 3389 C 2299 3640 2124 3879 1972 4177 C 1808 4501 1711 4807 1654 5182 C 1633 5321 1624 5750 1639 5905 C 1739 6939 2315 7833 3214 8350 C 3553 8545 3995 8690 4375 8729 C 4430 8735 4491 8742 4510 8744 C 4529 8746 4658 8747 4795 8745 C 4980 8742 5079 8736 5175 8721 z M 3345 1956 C 3432 1929 3433 1928 3408 1830 C 3397 1783 3384 1741 3380 1737 C 3377 1733 3345 1736 3309 1745 C 3233 1763 3126 1764 3064 1749 C 2998 1732 2935 1670 2908 1595 C 2877 1508 2877 1311 2908 1226 C 2948 1117 3015 1071 3137 1070 C 3244 1070 3240 1065 3240 1186 L 3240 1290 L 3166 1290 C 3079 1290 3080 1289 3080 1400 C 3080 1454 3084 1481 3094 1489 C 3103 1497 3163 1500 3286 1498 L 3465 1495 L 3468 1213 L 3470 931 L 3429 910 C 3312 850 3119 833 2975 870 C 2844 904 2763 969 2708 1085 C 2661 1186 2647 1274 2653 1440 C 2660 1652 2698 1769 2791 1861 C 2882 1953 2978 1982 3170 1976 C 3243 1973 3316 1965 3345 1956 z M 4721 1770 C 4722 1677 4724 1591 4725 1580 C 4726 1569 4728 1556 4729 1550 C 4730 1544 4787 1540 4880 1540 L 5030 1540 L 5032 1738 L 5035 1935 L 5148 1938 L 5260 1941 L 5260 1405 L 5260 869 L 5148 872 L 5035 875 L 5032 1103 L 5030 1330 L 4880 1330 C 4787 1330 4730 1326 4729 1320 C 4728 1315 4726 1306 4725 1300 C 4724 1295 4722 1195 4721 1080 L 4720 869 L 4608 872 L 4495 875 L 4492 1395 C 4491 1681 4492 1921 4495 1928 C 4498 1936 4531 1940 4610 1940 L 4720 1940 L 4721 1770 z M 6360 1760 C 6360 1661 6362 1580 6365 1580 C 6368 1580 6399 1589 6433 1601 C 6481 1617 6512 1621 6570 1618 C 6662 1612 6718 1586 6760 1528 C 6872 1374 6842 981 6713 896 C 6625 839 6489 835 6377 888 L 6312 918 L 6306 894 C 6300 870 6297 869 6217 872 L 6135 875 L 6132 1395 C 6131 1681 6132 1921 6135 1928 C 6138 1936 6171 1940 6250 1940 L 6360 1940 L 6360 1760 z M 3747 1905 C 3759 1902 3780 1886 3794 1869 C 3868 1782 3808 1660 3692 1660 C 3655 1660 3642 1666 3615 1693 C 3577 1731 3565 1766 3574 1813 C 3583 1857 3613 1890 3658 1906 C 3694 1919 3701 1919 3747 1905 z M 4230 1705 L 4230 1601 L 4313 1598 L 4395 1595 L 4395 1505 L 4395 1415 L 4315 1410 L 4235 1405 L 4235 1243 C 4235 1049 4235 1048 4335 1042 L 4400 1038 L 4400 955 L 4400 872 L 4350 861 C 4209 831 4082 872 4032 964 C 4018 989 4014 1032 4010 1200 L 4005 1405 L 3945 1410 L 3885 1415 L 3882 1480 C 3881 1516 3883 1550 3887 1556 C 3892 1562 3920 1573 3950 1581 L 4005 1595 L 4008 1703 L 4011 1810 L 4120 1810 L 4230 1810 L 4230 1705 z M 3808 1238 L 3805 875 L 3695 875 L 3585 875 L 3582 1225 C 3581 1417 3582 1581 3585 1587 C 3588 1596 3620 1600 3700 1600 L 3810 1600 L 3808 1238 z M 5592 1339 C 5595 1079 5595 1078 5619 1059 C 5646 1037 5706 1035 5760 1054 L 5795 1067 L 5800 1331 L 5805 1595 L 5915 1595 L 6025 1595 L 6028 1233 L 6030 870 L 5954 870 C 5887 870 5878 872 5873 890 C 5866 915 5859 915 5812 891 C 5687 828 5485 841 5419 916 C 5367 975 5365 988 5362 1288 C 5360 1444 5361 1578 5364 1586 C 5368 1597 5394 1600 5479 1600 L 5589 1600 L 5592 1339 z" stroke-linecap="round" />
</g>
		<g transform="matrix(0.13 0 0 -0.13 227.9 475.2)"  >
<path style="stroke: none; stroke-width: 1; stroke-dasharray: none; stroke-linecap: butt; stroke-dashoffset: 0; stroke-linejoin: miter; stroke-miterlimit: 4; fill: rgb(0,0,0); fill-rule: nonzero; opacity: 1;" vector-effect="non-scaling-stroke"  transform=" translate(-6479.22, -1235.98)" d="M 6400 1416 L 6365 1403 L 6362 1236 L 6360 1070 L 6387 1058 C 6403 1052 6440 1045 6470 1043 C 6543 1037 6573 1059 6590 1131 C 6605 1191 6599 1335 6580 1371 C 6551 1428 6482 1445 6400 1416 z" stroke-linecap="round" />
</g>
</g>
</g>
</svg>